<svg xmlns="http://www.w3.org/2000/svg" viewBox="0 0 400 225" preserveAspectRatio="xMidYMid slice"><defs><linearGradient id="k" x1="0" y1="0" x2="0" y2="1"><stop offset="0" stop-color="#f3c08c"/><stop offset="1" stop-color="#f2f6fb"/></linearGradient></defs><rect width="400" height="225" fill="url(#k)"/><rect x="0" y="81" width="29" height="144" fill="#6b4f4f" opacity="0.90"/><rect x="5" y="89" width="3" height="5" fill="#ffe9a8" opacity=".8"/><rect x="14" y="89" width="3" height="5" fill="#ffe9a8" opacity=".8"/><rect x="23" y="89" width="3" height="5" fill="#ffe9a8" opacity=".8"/><rect x="5" y="103" width="3" height="5" fill="#ffe9a8" opacity=".8"/><rect x="23" y="103" width="3" height="5" fill="#ffe9a8" opacity=".8"/><rect x="14" y="117" width="3" height="5" fill="#ffe9a8" opacity=".8"/><rect x="23" y="131" width="3" height="5" fill="#ffe9a8" opacity=".8"/><rect x="23" y="145" width="3" height="5" fill="#ffe9a8" opacity=".8"/><rect x="14" y="159" width="3" height="5" fill="#ffe9a8" opacity=".8"/><rect x="23" y="159" width="3" height="5" fill="#ffe9a8" opacity=".8"/><rect x="5" y="173" width="3" height="5" fill="#ffe9a8" opacity=".8"/><rect x="23" y="173" width="3" height="5" fill="#ffe9a8" opacity=".8"/><rect x="14" y="201" width="3" height="5" fill="#ffe9a8" opacity=".8"/><rect x="5" y="215" width="3" height="5" fill="#ffe9a8" opacity=".8"/><rect x="23" y="215" width="3" height="5" fill="#ffe9a8" opacity=".8"/><rect x="32" y="181" width="34" height="44" fill="#6b4f4f" opacity="0.77"/><rect x="46" y="189" width="3" height="5" fill="#ffe9a8" opacity=".8"/><rect x="55" y="189" width="3" height="5" fill="#ffe9a8" opacity=".8"/><rect x="46" y="203" width="3" height="5" fill="#ffe9a8" opacity=".8"/><rect x="55" y="203" width="3" height="5" fill="#ffe9a8" opacity=".8"/><rect x="46" y="217" width="3" height="5" fill="#ffe9a8" opacity=".8"/><rect x="69" y="121" width="21" height="104" fill="#6b4f4f" opacity="0.99"/><rect x="74" y="129" width="3" height="5" fill="#ffe9a8" opacity=".8"/><rect x="74" y="157" width="3" height="5" fill="#ffe9a8" opacity=".8"/><rect x="83" y="213" width="3" height="5" fill="#ffe9a8" opacity=".8"/><rect x="92" y="155" width="37" height="70" fill="#6b4f4f" opacity="0.76"/><rect x="97" y="163" width="3" height="5" fill="#ffe9a8" opacity=".8"/><rect x="115" y="163" width="3" height="5" fill="#ffe9a8" opacity=".8"/><rect x="97" y="177" width="3" height="5" fill="#ffe9a8" opacity=".8"/><rect x="97" y="191" width="3" height="5" fill="#ffe9a8" opacity=".8"/><rect x="97" y="205" width="3" height="5" fill="#ffe9a8" opacity=".8"/><rect x="106" y="205" width="3" height="5" fill="#ffe9a8" opacity=".8"/><rect x="97" y="219" width="3" height="5" fill="#ffe9a8" opacity=".8"/><rect x="131" y="170" width="35" height="55" fill="#6b4f4f" opacity="0.81"/><rect x="145" y="178" width="3" height="5" fill="#ffe9a8" opacity=".8"/><rect x="154" y="178" width="3" height="5" fill="#ffe9a8" opacity=".8"/><rect x="145" y="192" width="3" height="5" fill="#ffe9a8" opacity=".8"/><rect x="154" y="192" width="3" height="5" fill="#ffe9a8" opacity=".8"/><rect x="136" y="206" width="3" height="5" fill="#ffe9a8" opacity=".8"/><rect x="154" y="206" width="3" height="5" fill="#ffe9a8" opacity=".8"/><rect x="171" y="136" width="28" height="89" fill="#6b4f4f" opacity="0.75"/><rect x="176" y="144" width="3" height="5" fill="#ffe9a8" opacity=".8"/><rect x="185" y="158" width="3" height="5" fill="#ffe9a8" opacity=".8"/><rect x="185" y="172" width="3" height="5" fill="#ffe9a8" opacity=".8"/><rect x="176" y="186" width="3" height="5" fill="#ffe9a8" opacity=".8"/><rect x="185" y="186" width="3" height="5" fill="#ffe9a8" opacity=".8"/><rect x="185" y="200" width="3" height="5" fill="#ffe9a8" opacity=".8"/><rect x="176" y="214" width="3" height="5" fill="#ffe9a8" opacity=".8"/><rect x="201" y="113" width="33" height="112" fill="#6b4f4f" opacity="0.77"/><rect x="206" y="121" width="3" height="5" fill="#ffe9a8" opacity=".8"/><rect x="215" y="121" width="3" height="5" fill="#ffe9a8" opacity=".8"/><rect x="206" y="135" width="3" height="5" fill="#ffe9a8" opacity=".8"/><rect x="215" y="135" width="3" height="5" fill="#ffe9a8" opacity=".8"/><rect x="224" y="135" width="3" height="5" fill="#ffe9a8" opacity=".8"/><rect x="206" y="149" width="3" height="5" fill="#ffe9a8" opacity=".8"/><rect x="206" y="163" width="3" height="5" fill="#ffe9a8" opacity=".8"/><rect x="215" y="163" width="3" height="5" fill="#ffe9a8" opacity=".8"/><rect x="224" y="163" width="3" height="5" fill="#ffe9a8" opacity=".8"/><rect x="206" y="177" width="3" height="5" fill="#ffe9a8" opacity=".8"/><rect x="215" y="177" width="3" height="5" fill="#ffe9a8" opacity=".8"/><rect x="215" y="191" width="3" height="5" fill="#ffe9a8" opacity=".8"/><rect x="224" y="191" width="3" height="5" fill="#ffe9a8" opacity=".8"/><rect x="206" y="205" width="3" height="5" fill="#ffe9a8" opacity=".8"/><rect x="215" y="205" width="3" height="5" fill="#ffe9a8" opacity=".8"/><rect x="224" y="219" width="3" height="5" fill="#ffe9a8" opacity=".8"/><rect x="239" y="126" width="18" height="99" fill="#6b4f4f" opacity="0.86"/><rect x="244" y="190" width="3" height="5" fill="#ffe9a8" opacity=".8"/><rect x="259" y="156" width="22" height="69" fill="#6b4f4f" opacity="0.89"/><rect x="264" y="164" width="3" height="5" fill="#ffe9a8" opacity=".8"/><rect x="273" y="164" width="3" height="5" fill="#ffe9a8" opacity=".8"/><rect x="273" y="178" width="3" height="5" fill="#ffe9a8" opacity=".8"/><rect x="273" y="192" width="3" height="5" fill="#ffe9a8" opacity=".8"/><rect x="282" y="85" width="27" height="140" fill="#6b4f4f" opacity="0.85"/><rect x="296" y="93" width="3" height="5" fill="#ffe9a8" opacity=".8"/><rect x="287" y="163" width="3" height="5" fill="#ffe9a8" opacity=".8"/><rect x="296" y="163" width="3" height="5" fill="#ffe9a8" opacity=".8"/><rect x="287" y="191" width="3" height="5" fill="#ffe9a8" opacity=".8"/><rect x="296" y="205" width="3" height="5" fill="#ffe9a8" opacity=".8"/><rect x="296" y="219" width="3" height="5" fill="#ffe9a8" opacity=".8"/><rect x="313" y="173" width="20" height="52" fill="#6b4f4f" opacity="0.90"/><rect x="327" y="195" width="3" height="5" fill="#ffe9a8" opacity=".8"/><rect x="327" y="209" width="3" height="5" fill="#ffe9a8" opacity=".8"/><rect x="335" y="161" width="27" height="64" fill="#6b4f4f" opacity="0.78"/><rect x="349" y="211" width="3" height="5" fill="#ffe9a8" opacity=".8"/><rect x="363" y="177" width="37" height="48" fill="#6b4f4f" opacity="0.93"/><rect x="368" y="185" width="3" height="5" fill="#ffe9a8" opacity=".8"/><rect x="377" y="185" width="3" height="5" fill="#ffe9a8" opacity=".8"/><rect x="377" y="199" width="3" height="5" fill="#ffe9a8" opacity=".8"/><rect x="386" y="199" width="3" height="5" fill="#ffe9a8" opacity=".8"/><rect x="368" y="213" width="3" height="5" fill="#ffe9a8" opacity=".8"/><rect y="215" width="400" height="10" fill="#3c5a78"/></svg>