<svg xmlns="http://www.w3.org/2000/svg" viewBox="0 0 400 225" preserveAspectRatio="xMidYMid slice"><defs><linearGradient id="k" x1="0" y1="0" x2="0" y2="1"><stop offset="0" stop-color="#f4b37a"/><stop offset="1" stop-color="#f2f6fb"/></linearGradient></defs><rect width="400" height="225" fill="url(#k)"/><rect x="0" y="107" width="21" height="118" fill="#6a4a6e" opacity="0.93"/><rect x="5" y="129" width="3" height="5" fill="#ffe9a8" opacity=".8"/><rect x="14" y="129" width="3" height="5" fill="#ffe9a8" opacity=".8"/><rect x="5" y="157" width="3" height="5" fill="#ffe9a8" opacity=".8"/><rect x="5" y="185" width="3" height="5" fill="#ffe9a8" opacity=".8"/><rect x="14" y="185" width="3" height="5" fill="#ffe9a8" opacity=".8"/><rect x="5" y="213" width="3" height="5" fill="#ffe9a8" opacity=".8"/><rect x="27" y="166" width="34" height="59" fill="#6a4a6e" opacity="0.79"/><rect x="41" y="174" width="3" height="5" fill="#ffe9a8" opacity=".8"/><rect x="50" y="174" width="3" height="5" fill="#ffe9a8" opacity=".8"/><rect x="32" y="188" width="3" height="5" fill="#ffe9a8" opacity=".8"/><rect x="50" y="188" width="3" height="5" fill="#ffe9a8" opacity=".8"/><rect x="32" y="202" width="3" height="5" fill="#ffe9a8" opacity=".8"/><rect x="62" y="98" width="38" height="127" fill="#6a4a6e" opacity="0.97"/><rect x="94" y="120" width="3" height="5" fill="#ffe9a8" opacity=".8"/><rect x="85" y="134" width="3" height="5" fill="#ffe9a8" opacity=".8"/><rect x="94" y="134" width="3" height="5" fill="#ffe9a8" opacity=".8"/><rect x="67" y="148" width="3" height="5" fill="#ffe9a8" opacity=".8"/><rect x="85" y="148" width="3" height="5" fill="#ffe9a8" opacity=".8"/><rect x="94" y="148" width="3" height="5" fill="#ffe9a8" opacity=".8"/><rect x="67" y="162" width="3" height="5" fill="#ffe9a8" opacity=".8"/><rect x="85" y="176" width="3" height="5" fill="#ffe9a8" opacity=".8"/><rect x="67" y="190" width="3" height="5" fill="#ffe9a8" opacity=".8"/><rect x="67" y="204" width="3" height="5" fill="#ffe9a8" opacity=".8"/><rect x="94" y="218" width="3" height="5" fill="#ffe9a8" opacity=".8"/><rect x="104" y="80" width="18" height="145" fill="#6a4a6e" opacity="0.93"/><rect x="109" y="116" width="3" height="5" fill="#ffe9a8" opacity=".8"/><rect x="109" y="158" width="3" height="5" fill="#ffe9a8" opacity=".8"/><rect x="109" y="172" width="3" height="5" fill="#ffe9a8" opacity=".8"/><rect x="109" y="186" width="3" height="5" fill="#ffe9a8" opacity=".8"/><rect x="125" y="136" width="21" height="89" fill="#6a4a6e" opacity="0.77"/><rect x="130" y="144" width="3" height="5" fill="#ffe9a8" opacity=".8"/><rect x="139" y="144" width="3" height="5" fill="#ffe9a8" opacity=".8"/><rect x="130" y="158" width="3" height="5" fill="#ffe9a8" opacity=".8"/><rect x="139" y="186" width="3" height="5" fill="#ffe9a8" opacity=".8"/><rect x="130" y="214" width="3" height="5" fill="#ffe9a8" opacity=".8"/><rect x="139" y="214" width="3" height="5" fill="#ffe9a8" opacity=".8"/><rect x="151" y="162" width="26" height="63" fill="#6a4a6e" opacity="0.81"/><rect x="156" y="184" width="3" height="5" fill="#ffe9a8" opacity=".8"/><rect x="179" y="103" width="34" height="122" fill="#6a4a6e" opacity="0.96"/><rect x="202" y="125" width="3" height="5" fill="#ffe9a8" opacity=".8"/><rect x="202" y="139" width="3" height="5" fill="#ffe9a8" opacity=".8"/><rect x="202" y="153" width="3" height="5" fill="#ffe9a8" opacity=".8"/><rect x="184" y="167" width="3" height="5" fill="#ffe9a8" opacity=".8"/><rect x="193" y="167" width="3" height="5" fill="#ffe9a8" opacity=".8"/><rect x="202" y="167" width="3" height="5" fill="#ffe9a8" opacity=".8"/><rect x="193" y="181" width="3" height="5" fill="#ffe9a8" opacity=".8"/><rect x="202" y="181" width="3" height="5" fill="#ffe9a8" opacity=".8"/><rect x="193" y="209" width="3" height="5" fill="#ffe9a8" opacity=".8"/><rect x="217" y="169" width="31" height="56" fill="#6a4a6e" opacity="0.86"/><rect x="222" y="177" width="3" height="5" fill="#ffe9a8" opacity=".8"/><rect x="240" y="177" width="3" height="5" fill="#ffe9a8" opacity=".8"/><rect x="222" y="191" width="3" height="5" fill="#ffe9a8" opacity=".8"/><rect x="253" y="126" width="31" height="99" fill="#6a4a6e" opacity="0.82"/><rect x="258" y="148" width="3" height="5" fill="#ffe9a8" opacity=".8"/><rect x="267" y="162" width="3" height="5" fill="#ffe9a8" opacity=".8"/><rect x="276" y="190" width="3" height="5" fill="#ffe9a8" opacity=".8"/><rect x="267" y="204" width="3" height="5" fill="#ffe9a8" opacity=".8"/><rect x="276" y="204" width="3" height="5" fill="#ffe9a8" opacity=".8"/><rect x="276" y="218" width="3" height="5" fill="#ffe9a8" opacity=".8"/><rect x="288" y="85" width="32" height="140" fill="#6a4a6e" opacity="0.97"/><rect x="302" y="93" width="3" height="5" fill="#ffe9a8" opacity=".8"/><rect x="311" y="93" width="3" height="5" fill="#ffe9a8" opacity=".8"/><rect x="293" y="107" width="3" height="5" fill="#ffe9a8" opacity=".8"/><rect x="302" y="107" width="3" height="5" fill="#ffe9a8" opacity=".8"/><rect x="302" y="135" width="3" height="5" fill="#ffe9a8" opacity=".8"/><rect x="293" y="149" width="3" height="5" fill="#ffe9a8" opacity=".8"/><rect x="302" y="149" width="3" height="5" fill="#ffe9a8" opacity=".8"/><rect x="293" y="163" width="3" height="5" fill="#ffe9a8" opacity=".8"/><rect x="311" y="163" width="3" height="5" fill="#ffe9a8" opacity=".8"/><rect x="293" y="177" width="3" height="5" fill="#ffe9a8" opacity=".8"/><rect x="302" y="177" width="3" height="5" fill="#ffe9a8" opacity=".8"/><rect x="302" y="191" width="3" height="5" fill="#ffe9a8" opacity=".8"/><rect x="311" y="191" width="3" height="5" fill="#ffe9a8" opacity=".8"/><rect x="311" y="205" width="3" height="5" fill="#ffe9a8" opacity=".8"/><rect x="311" y="219" width="3" height="5" fill="#ffe9a8" opacity=".8"/><rect x="324" y="131" width="37" height="94" fill="#6a4a6e" opacity="0.81"/><rect x="329" y="167" width="3" height="5" fill="#ffe9a8" opacity=".8"/><rect x="347" y="181" width="3" height="5" fill="#ffe9a8" opacity=".8"/><rect x="338" y="195" width="3" height="5" fill="#ffe9a8" opacity=".8"/><rect x="347" y="209" width="3" height="5" fill="#ffe9a8" opacity=".8"/><rect x="363" y="82" width="39" height="143" fill="#6a4a6e" opacity="0.92"/><rect x="395" y="90" width="3" height="5" fill="#ffe9a8" opacity=".8"/><rect x="395" y="104" width="3" height="5" fill="#ffe9a8" opacity=".8"/><rect x="386" y="132" width="3" height="5" fill="#ffe9a8" opacity=".8"/><rect x="377" y="146" width="3" height="5" fill="#ffe9a8" opacity=".8"/><rect x="386" y="146" width="3" height="5" fill="#ffe9a8" opacity=".8"/><rect x="368" y="160" width="3" height="5" fill="#ffe9a8" opacity=".8"/><rect x="386" y="160" width="3" height="5" fill="#ffe9a8" opacity=".8"/><rect x="377" y="174" width="3" height="5" fill="#ffe9a8" opacity=".8"/><rect x="368" y="202" width="3" height="5" fill="#ffe9a8" opacity=".8"/><rect x="386" y="202" width="3" height="5" fill="#ffe9a8" opacity=".8"/><rect x="368" y="216" width="3" height="5" fill="#ffe9a8" opacity=".8"/><rect x="377" y="216" width="3" height="5" fill="#ffe9a8" opacity=".8"/><rect y="215" width="400" height="10" fill="#3c5a78"/></svg>