<svg xmlns="http://www.w3.org/2000/svg" viewBox="0 0 400 225" preserveAspectRatio="xMidYMid slice"><defs><linearGradient id="k" x1="0" y1="0" x2="0" y2="1"><stop offset="0" stop-color="#f5a36b"/><stop offset="1" stop-color="#f2f6fb"/></linearGradient></defs><rect width="400" height="225" fill="url(#k)"/><rect x="0" y="76" width="37" height="149" fill="#7a3f45" opacity="0.97"/><rect x="14" y="112" width="3" height="5" fill="#ffe9a8" opacity=".8"/><rect x="23" y="112" width="3" height="5" fill="#ffe9a8" opacity=".8"/><rect x="23" y="126" width="3" height="5" fill="#ffe9a8" opacity=".8"/><rect x="14" y="140" width="3" height="5" fill="#ffe9a8" opacity=".8"/><rect x="14" y="154" width="3" height="5" fill="#ffe9a8" opacity=".8"/><rect x="23" y="154" width="3" height="5" fill="#ffe9a8" opacity=".8"/><rect x="23" y="168" width="3" height="5" fill="#ffe9a8" opacity=".8"/><rect x="23" y="182" width="3" height="5" fill="#ffe9a8" opacity=".8"/><rect x="5" y="196" width="3" height="5" fill="#ffe9a8" opacity=".8"/><rect x="14" y="196" width="3" height="5" fill="#ffe9a8" opacity=".8"/><rect x="23" y="210" width="3" height="5" fill="#ffe9a8" opacity=".8"/><rect x="39" y="179" width="42" height="46" fill="#7a3f45" opacity="0.86"/><rect x="53" y="187" width="3" height="5" fill="#ffe9a8" opacity=".8"/><rect x="62" y="187" width="3" height="5" fill="#ffe9a8" opacity=".8"/><rect x="44" y="201" width="3" height="5" fill="#ffe9a8" opacity=".8"/><rect x="53" y="201" width="3" height="5" fill="#ffe9a8" opacity=".8"/><rect x="62" y="201" width="3" height="5" fill="#ffe9a8" opacity=".8"/><rect x="53" y="215" width="3" height="5" fill="#ffe9a8" opacity=".8"/><rect x="84" y="155" width="26" height="70" fill="#7a3f45" opacity="0.76"/><rect x="89" y="177" width="3" height="5" fill="#ffe9a8" opacity=".8"/><rect x="89" y="191" width="3" height="5" fill="#ffe9a8" opacity=".8"/><rect x="89" y="205" width="3" height="5" fill="#ffe9a8" opacity=".8"/><rect x="98" y="205" width="3" height="5" fill="#ffe9a8" opacity=".8"/><rect x="114" y="108" width="24" height="117" fill="#7a3f45" opacity="0.83"/><rect x="128" y="130" width="3" height="5" fill="#ffe9a8" opacity=".8"/><rect x="119" y="144" width="3" height="5" fill="#ffe9a8" opacity=".8"/><rect x="119" y="158" width="3" height="5" fill="#ffe9a8" opacity=".8"/><rect x="119" y="172" width="3" height="5" fill="#ffe9a8" opacity=".8"/><rect x="128" y="172" width="3" height="5" fill="#ffe9a8" opacity=".8"/><rect x="119" y="186" width="3" height="5" fill="#ffe9a8" opacity=".8"/><rect x="119" y="214" width="3" height="5" fill="#ffe9a8" opacity=".8"/><rect x="143" y="168" width="28" height="57" fill="#7a3f45" opacity="0.94"/><rect x="148" y="176" width="3" height="5" fill="#ffe9a8" opacity=".8"/><rect x="157" y="204" width="3" height="5" fill="#ffe9a8" opacity=".8"/><rect x="157" y="218" width="3" height="5" fill="#ffe9a8" opacity=".8"/><rect x="177" y="86" width="35" height="139" fill="#7a3f45" opacity="0.84"/><rect x="182" y="94" width="3" height="5" fill="#ffe9a8" opacity=".8"/><rect x="200" y="94" width="3" height="5" fill="#ffe9a8" opacity=".8"/><rect x="200" y="122" width="3" height="5" fill="#ffe9a8" opacity=".8"/><rect x="200" y="136" width="3" height="5" fill="#ffe9a8" opacity=".8"/><rect x="182" y="150" width="3" height="5" fill="#ffe9a8" opacity=".8"/><rect x="200" y="192" width="3" height="5" fill="#ffe9a8" opacity=".8"/><rect x="191" y="206" width="3" height="5" fill="#ffe9a8" opacity=".8"/><rect x="200" y="206" width="3" height="5" fill="#ffe9a8" opacity=".8"/><rect x="217" y="182" width="42" height="43" fill="#7a3f45" opacity="0.88"/><rect x="231" y="190" width="3" height="5" fill="#ffe9a8" opacity=".8"/><rect x="240" y="190" width="3" height="5" fill="#ffe9a8" opacity=".8"/><rect x="249" y="204" width="3" height="5" fill="#ffe9a8" opacity=".8"/><rect x="222" y="218" width="3" height="5" fill="#ffe9a8" opacity=".8"/><rect x="260" y="125" width="39" height="100" fill="#7a3f45" opacity="0.94"/><rect x="265" y="133" width="3" height="5" fill="#ffe9a8" opacity=".8"/><rect x="292" y="147" width="3" height="5" fill="#ffe9a8" opacity=".8"/><rect x="265" y="175" width="3" height="5" fill="#ffe9a8" opacity=".8"/><rect x="274" y="175" width="3" height="5" fill="#ffe9a8" opacity=".8"/><rect x="283" y="175" width="3" height="5" fill="#ffe9a8" opacity=".8"/><rect x="274" y="189" width="3" height="5" fill="#ffe9a8" opacity=".8"/><rect x="283" y="189" width="3" height="5" fill="#ffe9a8" opacity=".8"/><rect x="274" y="217" width="3" height="5" fill="#ffe9a8" opacity=".8"/><rect x="292" y="217" width="3" height="5" fill="#ffe9a8" opacity=".8"/><rect x="302" y="90" width="40" height="135" fill="#7a3f45" opacity="0.81"/><rect x="316" y="98" width="3" height="5" fill="#ffe9a8" opacity=".8"/><rect x="325" y="98" width="3" height="5" fill="#ffe9a8" opacity=".8"/><rect x="307" y="112" width="3" height="5" fill="#ffe9a8" opacity=".8"/><rect x="316" y="112" width="3" height="5" fill="#ffe9a8" opacity=".8"/><rect x="307" y="126" width="3" height="5" fill="#ffe9a8" opacity=".8"/><rect x="316" y="126" width="3" height="5" fill="#ffe9a8" opacity=".8"/><rect x="325" y="126" width="3" height="5" fill="#ffe9a8" opacity=".8"/><rect x="334" y="126" width="3" height="5" fill="#ffe9a8" opacity=".8"/><rect x="307" y="140" width="3" height="5" fill="#ffe9a8" opacity=".8"/><rect x="316" y="140" width="3" height="5" fill="#ffe9a8" opacity=".8"/><rect x="325" y="140" width="3" height="5" fill="#ffe9a8" opacity=".8"/><rect x="307" y="154" width="3" height="5" fill="#ffe9a8" opacity=".8"/><rect x="316" y="154" width="3" height="5" fill="#ffe9a8" opacity=".8"/><rect x="316" y="168" width="3" height="5" fill="#ffe9a8" opacity=".8"/><rect x="334" y="168" width="3" height="5" fill="#ffe9a8" opacity=".8"/><rect x="325" y="182" width="3" height="5" fill="#ffe9a8" opacity=".8"/><rect x="334" y="182" width="3" height="5" fill="#ffe9a8" opacity=".8"/><rect x="307" y="196" width="3" height="5" fill="#ffe9a8" opacity=".8"/><rect x="316" y="210" width="3" height="5" fill="#ffe9a8" opacity=".8"/><rect x="344" y="169" width="18" height="56" fill="#7a3f45" opacity="0.91"/><rect x="349" y="177" width="3" height="5" fill="#ffe9a8" opacity=".8"/><rect x="349" y="205" width="3" height="5" fill="#ffe9a8" opacity=".8"/><rect x="368" y="180" width="42" height="45" fill="#7a3f45" opacity="0.75"/><rect x="373" y="188" width="3" height="5" fill="#ffe9a8" opacity=".8"/><rect y="215" width="400" height="10" fill="#3c5a78"/></svg>