<svg xmlns="http://www.w3.org/2000/svg" viewBox="0 0 1600 700" preserveAspectRatio="xMidYMid slice"><defs><linearGradient id="s" x1="0" y1="0" x2="0" y2="1"><stop offset="0" stop-color="#dbe8f6"/><stop offset="0.6" stop-color="#eef4fb"/><stop offset="1" stop-color="#f6f2e8"/></linearGradient><radialGradient id="g" cx="0.5" cy="0.5" r="0.5"><stop offset="0" stop-color="#fff7de"/><stop offset="1" stop-color="#fff7de" stop-opacity="0"/></radialGradient></defs><rect width="1600" height="700" fill="url(#s)"/><circle cx="1250" cy="170" r="220" fill="url(#g)"/><path d="M0 700 L0 333 L160 320 L320 361 L480 312 L747 413 L924 335 L1153 327 L1331 369 L1491 361 L1600 364 L1600 700Z" fill="#c7d6ea"/><path d="M0 700 L0 407 L229 471 L389 423 L655 451 L922 400 L1082 388 L1349 466 L1549 431 L1600 434 L1600 700Z" fill="#a9bfdc"/><path d="M0 700 L0 521 L178 496 L338 500 L566 534 L833 467 L1011 481 L1189 526 L1389 498 L1566 510 L1600 504 L1600 700Z" fill="#8fa9c9"/><path d="M363 630.0 L386 523 L410 630.0Z" fill="#5f7f76"/><path d="M202 630.0 L222 541 L241 630.0Z" fill="#5f7f76"/><path d="M136 630.0 L149 573 L162 630.0Z" fill="#5f7f76"/><path d="M1599 630.0 L1611 575 L1623 630.0Z" fill="#5f7f76"/><path d="M1027 630.0 L1043 558 L1059 630.0Z" fill="#5f7f76"/><path d="M725 630.0 L741 555 L758 630.0Z" fill="#5f7f76"/><path d="M308 630.0 L329 532 L351 630.0Z" fill="#5f7f76"/><path d="M143 630.0 L156 574 L168 630.0Z" fill="#5f7f76"/><path d="M32 630.0 L45 571 L58 630.0Z" fill="#5f7f76"/><path d="M652 630.0 L675 527 L698 630.0Z" fill="#5f7f76"/><path d="M607 630.0 L617 582 L628 630.0Z" fill="#5f7f76"/><path d="M413 630.0 L437 521 L462 630.0Z" fill="#5f7f76"/><path d="M101 630.0 L119 547 L138 630.0Z" fill="#5f7f76"/><path d="M604 630.0 L623 544 L641 630.0Z" fill="#5f7f76"/><path d="M542 630.0 L561 542 L580 630.0Z" fill="#5f7f76"/><path d="M796 630.0 L815 545 L834 630.0Z" fill="#5f7f76"/><path d="M1442 630.0 L1460 549 L1478 630.0Z" fill="#5f7f76"/><path d="M227 630.0 L237 585 L247 630.0Z" fill="#5f7f76"/><path d="M1514 630.0 L1530 556 L1546 630.0Z" fill="#5f7f76"/><path d="M310 630.0 L334 524 L357 630.0Z" fill="#5f7f76"/><path d="M926 630.0 L946 539 L966 630.0Z" fill="#5f7f76"/><path d="M1410 630.0 L1423 570 L1436 630.0Z" fill="#5f7f76"/><path d="M571 630.0 L593 529 L615 630.0Z" fill="#5f7f76"/><path d="M216 630.0 L237 536 L257 630.0Z" fill="#5f7f76"/><path d="M156 630.0 L176 542 L195 630.0Z" fill="#5f7f76"/><path d="M1123 630.0 L1147 524 L1170 630.0Z" fill="#5f7f76"/><path d="M1350 630.0 L1366 555 L1383 630.0Z" fill="#5f7f76"/><path d="M316 630.0 L327 579 L338 630.0Z" fill="#5f7f76"/><path d="M846 630.0 L863 554 L879 630.0Z" fill="#5f7f76"/><path d="M114 630.0 L137 527 L160 630.0Z" fill="#5f7f76"/><path d="M812 630.0 L831 541 L851 630.0Z" fill="#5f7f76"/><path d="M352 630.0 L364 573 L377 630.0Z" fill="#5f7f76"/><path d="M19 630.0 L33 566 L47 630.0Z" fill="#5f7f76"/><path d="M427 630.0 L442 560 L458 630.0Z" fill="#5f7f76"/><path d="M603 630.0 L625 532 L646 630.0Z" fill="#5f7f76"/><path d="M1426 630.0 L1438 578 L1449 630.0Z" fill="#5f7f76"/><path d="M634 630.0 L645 578 L657 630.0Z" fill="#5f7f76"/><path d="M1061 630.0 L1085 522 L1109 630.0Z" fill="#5f7f76"/><path d="M323 630.0 L343 536 L364 630.0Z" fill="#5f7f76"/><path d="M480 630.0 L489 589 L498 630.0Z" fill="#5f7f76"/><path d="M1223 630.0 L1237 566 L1251 630.0Z" fill="#5f7f76"/><path d="M272 630.0 L288 560 L303 630.0Z" fill="#5f7f76"/><path d="M371 630.0 L386 561 L401 630.0Z" fill="#5f7f76"/><path d="M714 630.0 L729 561 L744 630.0Z" fill="#5f7f76"/><path d="M942 630.0 L955 570 L968 630.0Z" fill="#5f7f76"/><path d="M152 630.0 L162 584 L172 630.0Z" fill="#5f7f76"/><path d="M170 630.0 L187 554 L204 630.0Z" fill="#5f7f76"/><path d="M576 630.0 L598 533 L619 630.0Z" fill="#5f7f76"/><path d="M808 630.0 L828 540 L847 630.0Z" fill="#5f7f76"/><path d="M1568 630.0 L1578 586 L1588 630.0Z" fill="#5f7f76"/><path d="M27 630.0 L38 580 L49 630.0Z" fill="#5f7f76"/><path d="M618 630.0 L636 550 L653 630.0Z" fill="#5f7f76"/><path d="M1190 630.0 L1204 565 L1218 630.0Z" fill="#5f7f76"/><path d="M1544 630.0 L1553 590 L1562 630.0Z" fill="#5f7f76"/><path d="M1337 630.0 L1349 575 L1361 630.0Z" fill="#5f7f76"/><path d="M1400 630.0 L1410 588 L1419 630.0Z" fill="#5f7f76"/><path d="M1544 630.0 L1565 537 L1585 630.0Z" fill="#5f7f76"/><path d="M1585 630.0 L1602 549 L1620 630.0Z" fill="#5f7f76"/><path d="M284 630.0 L308 522 L332 630.0Z" fill="#5f7f76"/><path d="M706 630.0 L717 584 L727 630.0Z" fill="#5f7f76"/><path d="M969 630.0 L985 555 L1002 630.0Z" fill="#5f7f76"/><path d="M757 630.0 L768 579 L779 630.0Z" fill="#5f7f76"/><path d="M195 630.0 L213 549 L231 630.0Z" fill="#5f7f76"/><path d="M724 630.0 L735 581 L746 630.0Z" fill="#5f7f76"/><path d="M703 630.0 L723 539 L743 630.0Z" fill="#5f7f76"/><path d="M1145 630.0 L1161 557 L1177 630.0Z" fill="#5f7f76"/><path d="M630 630.0 L644 565 L659 630.0Z" fill="#5f7f76"/><path d="M361 630.0 L373 576 L385 630.0Z" fill="#5f7f76"/><path d="M714 630.0 L724 582 L735 630.0Z" fill="#5f7f76"/><path d="M1160 630.0 L1180 540 L1200 630.0Z" fill="#5f7f76"/><path d="M759 700 L788 568 L818 700Z" fill="#3f5f57"/><path d="M1066 700 L1083 624 L1100 700Z" fill="#3f5f57"/><path d="M17 700 L40 599 L62 700Z" fill="#3f5f57"/><path d="M438 700 L471 551 L504 700Z" fill="#3f5f57"/><path d="M1105 700 L1133 574 L1160 700Z" fill="#3f5f57"/><path d="M893 700 L922 567 L952 700Z" fill="#3f5f57"/><path d="M232 700 L256 592 L280 700Z" fill="#3f5f57"/><path d="M260 700 L295 540 L330 700Z" fill="#3f5f57"/><path d="M94 700 L127 550 L160 700Z" fill="#3f5f57"/><path d="M119 700 L149 564 L179 700Z" fill="#3f5f57"/><path d="M539 700 L562 595 L585 700Z" fill="#3f5f57"/><path d="M1348 700 L1361 638 L1375 700Z" fill="#3f5f57"/><path d="M97 700 L133 539 L168 700Z" fill="#3f5f57"/><path d="M814 700 L830 630 L845 700Z" fill="#3f5f57"/><path d="M1579 700 L1616 536 L1652 700Z" fill="#3f5f57"/><path d="M180 700 L203 593 L227 700Z" fill="#3f5f57"/><path d="M216 700 L237 606 L258 700Z" fill="#3f5f57"/><path d="M994 700 L1011 622 L1029 700Z" fill="#3f5f57"/><path d="M1115 700 L1129 634 L1144 700Z" fill="#3f5f57"/><path d="M274 700 L307 550 L340 700Z" fill="#3f5f57"/><path d="M641 700 L664 594 L688 700Z" fill="#3f5f57"/><path d="M954 700 L978 588 L1003 700Z" fill="#3f5f57"/><path d="M615 700 L629 637 L643 700Z" fill="#3f5f57"/><path d="M1162 700 L1199 534 L1235 700Z" fill="#3f5f57"/><path d="M1562 700 L1591 567 L1621 700Z" fill="#3f5f57"/><path d="M570 700 L592 600 L614 700Z" fill="#3f5f57"/><path d="M1104 700 L1134 566 L1163 700Z" fill="#3f5f57"/><path d="M182 700 L201 614 L220 700Z" fill="#3f5f57"/><path d="M581 700 L607 584 L632 700Z" fill="#3f5f57"/><path d="M1296 700 L1321 585 L1347 700Z" fill="#3f5f57"/><path d="M45 700 L78 550 L111 700Z" fill="#3f5f57"/><path d="M688 700 L714 583 L740 700Z" fill="#3f5f57"/><path d="M355 700 L379 593 L403 700Z" fill="#3f5f57"/><path d="M621 700 L653 555 L685 700Z" fill="#3f5f57"/><path d="M164 700 L191 580 L217 700Z" fill="#3f5f57"/><path d="M285 700 L315 563 L345 700Z" fill="#3f5f57"/><path d="M59 700 L79 610 L99 700Z" fill="#3f5f57"/><path d="M551 700 L579 570 L608 700Z" fill="#3f5f57"/><path d="M83 700 L108 589 L132 700Z" fill="#3f5f57"/><path d="M334 700 L354 609 L374 700Z" fill="#3f5f57"/><path d="M762 700 L798 535 L835 700Z" fill="#3f5f57"/><path d="M770 700 L806 535 L842 700Z" fill="#3f5f57"/><path d="M268 700 L304 538 L339 700Z" fill="#3f5f57"/><path d="M583 700 L600 619 L618 700Z" fill="#3f5f57"/><path d="M1198 700 L1233 540 L1268 700Z" fill="#3f5f57"/><path d="M11 700 L30 610 L50 700Z" fill="#3f5f57"/><path d="M1233 700 L1255 602 L1276 700Z" fill="#3f5f57"/><path d="M387 700 L400 639 L413 700Z" fill="#3f5f57"/><path d="M64 700 L92 572 L120 700Z" fill="#3f5f57"/><path d="M1574 700 L1611 530 L1649 700Z" fill="#3f5f57"/><path d="M806 700 L820 637 L833 700Z" fill="#3f5f57"/><path d="M516 700 L548 553 L580 700Z" fill="#3f5f57"/><path d="M1331 700 L1360 570 L1388 700Z" fill="#3f5f57"/><path d="M367 700 L393 582 L419 700Z" fill="#3f5f57"/><path d="M764 700 L792 571 L821 700Z" fill="#3f5f57"/><path d="M420 700 L456 536 L493 700Z" fill="#3f5f57"/><path d="M1431 700 L1448 622 L1465 700Z" fill="#3f5f57"/><path d="M466 700 L500 544 L535 700Z" fill="#3f5f57"/><path d="M445 700 L481 536 L517 700Z" fill="#3f5f57"/><path d="M824 700 L854 563 L884 700Z" fill="#3f5f57"/><path d="M1128 700 L1146 616 L1164 700Z" fill="#3f5f57"/><path d="M456 700 L475 612 L495 700Z" fill="#3f5f57"/><path d="M1093 700 L1123 564 L1153 700Z" fill="#3f5f57"/><path d="M211 700 L245 542 L280 700Z" fill="#3f5f57"/><path d="M673 700 L692 613 L711 700Z" fill="#3f5f57"/><path d="M696 700 L733 532 L770 700Z" fill="#3f5f57"/><path d="M896 700 L924 571 L953 700Z" fill="#3f5f57"/><path d="M1472 700 L1508 534 L1545 700Z" fill="#3f5f57"/><path d="M1217 700 L1240 594 L1263 700Z" fill="#3f5f57"/><path d="M941 700 L976 541 L1012 700Z" fill="#3f5f57"/><path d="M1263 700 L1290 576 L1317 700Z" fill="#3f5f57"/><path d="M556 700 L578 599 L600 700Z" fill="#3f5f57"/><path d="M1177 700 L1204 578 L1231 700Z" fill="#3f5f57"/><path d="M27 700 L58 562 L88 700Z" fill="#3f5f57"/><path d="M1446 700 L1479 552 L1511 700Z" fill="#3f5f57"/><path d="M1436 700 L1471 540 L1506 700Z" fill="#3f5f57"/><path d="M856 700 L888 553 L920 700Z" fill="#3f5f57"/><path d="M607 700 L623 629 L638 700Z" fill="#3f5f57"/><path d="M565 700 L586 606 L607 700Z" fill="#3f5f57"/><path d="M1494 700 L1524 564 L1554 700Z" fill="#3f5f57"/><path d="M867 700 L895 572 L923 700Z" fill="#3f5f57"/><path d="M200 700 L226 581 L252 700Z" fill="#3f5f57"/><path d="M1121 700 L1144 597 L1166 700Z" fill="#3f5f57"/><path d="M393 700 L416 595 L439 700Z" fill="#3f5f57"/><path d="M518 700 L548 565 L577 700Z" fill="#3f5f57"/><path d="M227 700 L242 630 L258 700Z" fill="#3f5f57"/><path d="M500 700 L530 563 L560 700Z" fill="#3f5f57"/><path d="M1215 700 L1245 567 L1274 700Z" fill="#3f5f57"/><path d="M1496 700 L1518 600 L1540 700Z" fill="#3f5f57"/><path d="M48 700 L73 586 L98 700Z" fill="#3f5f57"/><rect y="651" width="1600" height="49" fill="#4d6b5d"/></svg>